<svg xmlns="http://www.w3.org/2000/svg" viewBox="0 0 360 520" role="img" aria-label="Gunungan Jawa">
  <defs>
    <linearGradient id="gold" x1="0" x2="1" y1="0" y2="1">
      <stop offset="0" stop-color="#f8df9f"/>
      <stop offset=".48" stop-color="#b98235"/>
      <stop offset="1" stop-color="#6b3919"/>
    </linearGradient>
    <radialGradient id="green" cx="50%" cy="28%" r="72%">
      <stop offset="0" stop-color="#0d6261"/>
      <stop offset="1" stop-color="#042f32"/>
    </radialGradient>
  </defs>
  <path fill="url(#gold)" d="M180 12C101 92 55 174 43 264c-11 88 23 166 92 217l45 27 45-27c69-51 103-129 92-217-12-90-58-172-137-252Z"/>
  <path fill="url(#green)" d="M180 39C111 112 72 187 62 268c-9 74 20 139 78 182l40 24 40-24c58-43 87-108 78-182-10-81-49-156-118-229Z"/>
  <path fill="none" stroke="#e8c371" stroke-width="8" d="M180 57C123 121 91 190 83 266c-7 61 17 115 65 151l32 20 32-20c48-36 72-90 65-151-8-76-40-145-97-209Z"/>
  <g fill="none" stroke="#e8c371" stroke-linecap="round" stroke-width="7">
    <path d="M180 94c-32 44-47 88-45 132 2 39 17 75 45 108 28-33 43-69 45-108 2-44-13-88-45-132Z"/>
    <path d="M133 256c-23 10-39 25-49 45m143-45c23 10 39 25 49 45M117 332c36 2 57 15 63 38m63-38c-36 2-57 15-63 38"/>
    <path d="M180 139v230"/>
  </g>
  <g fill="#f8df9f">
    <circle cx="180" cy="92" r="9"/>
    <circle cx="136" cy="222" r="7"/>
    <circle cx="224" cy="222" r="7"/>
    <circle cx="180" cy="394" r="8"/>
  </g>
</svg>
