<svg xmlns="http://www.w3.org/2000/svg" viewBox="0 0 760 260" role="img" aria-label="Kisah Kami">
  <defs>
    <pattern id="kawung" width="44" height="44" patternUnits="userSpaceOnUse">
      <circle cx="22" cy="8" r="8" fill="none" stroke="#c6a05a" stroke-width="2"/>
      <circle cx="22" cy="36" r="8" fill="none" stroke="#c6a05a" stroke-width="2"/>
      <circle cx="8" cy="22" r="8" fill="none" stroke="#c6a05a" stroke-width="2"/>
      <circle cx="36" cy="22" r="8" fill="none" stroke="#c6a05a" stroke-width="2"/>
    </pattern>
  </defs>
  <rect width="760" height="260" fill="none"/>
  <path d="M118 130c80-84 171-112 262-84 91-28 182 0 262 84-80 84-171 112-262 84-91 28-182 0-262-84z" fill="#f7f1e5" opacity=".92"/>
  <path d="M118 130c80-84 171-112 262-84 91-28 182 0 262 84-80 84-171 112-262 84-91 28-182 0-262-84z" fill="url(#kawung)" opacity=".35"/>
  <path d="M118 130c80-84 171-112 262-84 91-28 182 0 262 84-80 84-171 112-262 84-91 28-182 0-262-84z" fill="none" stroke="#c6a05a" stroke-width="5"/>
  <text x="380" y="120" text-anchor="middle" font-family="Georgia, serif" font-size="52" fill="#234640">Kisah Kami</text>
  <text x="380" y="158" text-anchor="middle" font-family="Arial, sans-serif" font-size="17" fill="#6f5138" letter-spacing="7">CERITA CINTA</text>
</svg>
