<svg xmlns="http://www.w3.org/2000/svg" viewBox="0 0 360 360" role="img" aria-label="Doa Restu">
  <defs>
    <radialGradient id="petal" cx="50%" cy="45%" r="60%">
      <stop offset="0" stop-color="#fff7df"/>
      <stop offset=".7" stop-color="#d8bd78"/>
      <stop offset="1" stop-color="#b58a3a"/>
    </radialGradient>
  </defs>
  <rect width="360" height="360" fill="none"/>
  <g transform="translate(180 145)">
    <ellipse rx="35" ry="88" fill="url(#petal)" transform="rotate(0) translate(0 -42)"/>
    <ellipse rx="35" ry="88" fill="url(#petal)" transform="rotate(72) translate(0 -42)"/>
    <ellipse rx="35" ry="88" fill="url(#petal)" transform="rotate(144) translate(0 -42)"/>
    <ellipse rx="35" ry="88" fill="url(#petal)" transform="rotate(216) translate(0 -42)"/>
    <ellipse rx="35" ry="88" fill="url(#petal)" transform="rotate(288) translate(0 -42)"/>
    <circle r="36" fill="#234640"/>
    <circle r="18" fill="#f7f1e5"/>
  </g>
  <path d="M180 197c-49 33-76 74-82 123 43-7 75-33 99-77 19 31 49 50 90 56-7-42-34-75-81-102z" fill="#9ead8a"/>
  <text x="180" y="333" text-anchor="middle" font-family="Georgia, serif" font-size="31" fill="#234640">Doa Restu</text>
</svg>
