<svg xmlns="http://www.w3.org/2000/svg" viewBox="0 0 640 260" role="img" aria-label="Hari Bahagia">
  <defs>
    <linearGradient id="leaf" x1="0" x2="1">
      <stop offset="0" stop-color="#9ead8a"/>
      <stop offset="1" stop-color="#234640"/>
    </linearGradient>
    <linearGradient id="line" x1="0" x2="1">
      <stop offset="0" stop-color="#f1dfb1"/>
      <stop offset=".5" stop-color="#c6a05a"/>
      <stop offset="1" stop-color="#f1dfb1"/>
    </linearGradient>
  </defs>
  <rect width="640" height="260" fill="none"/>
  <g fill="none" stroke="url(#line)" stroke-width="4" stroke-linecap="round">
    <path d="M128 61c64 31 119 46 192 46s128-15 192-46"/>
    <path d="M128 199c64-31 119-46 192-46s128 15 192 46"/>
    <path d="M92 130h456"/>
  </g>
  <g fill="url(#leaf)" opacity=".92">
    <path d="M102 122c-36-34-43-69-24-101 37 21 49 56 24 101z"/>
    <path d="M538 122c36-34 43-69 24-101-37 21-49 56-24 101z"/>
    <path d="M102 138c-36 34-43 69-24 101 37-21 49-56 24-101z"/>
    <path d="M538 138c36 34 43 69 24 101-37-21-49-56-24-101z"/>
  </g>
  <circle cx="320" cy="130" r="78" fill="#f7f1e5" stroke="#c6a05a" stroke-width="5"/>
  <text x="320" y="121" text-anchor="middle" font-family="Georgia, serif" font-size="35" fill="#234640">Hari</text>
  <text x="320" y="158" text-anchor="middle" font-family="Georgia, serif" font-size="35" fill="#234640">Bahagia</text>
</svg>
