<svg xmlns="http://www.w3.org/2000/svg" viewBox="0 0 820 300" role="img" aria-label="Sugeng Rawuh">
  <defs>
    <linearGradient id="gold" x1="0" x2="1" y1="0" y2="1">
      <stop offset="0" stop-color="#d8bd78"/>
      <stop offset=".55" stop-color="#b58a3a"/>
      <stop offset="1" stop-color="#f2dfaa"/>
    </linearGradient>
    <filter id="soft" x="-10%" y="-20%" width="120%" height="140%">
      <feDropShadow dx="0" dy="8" stdDeviation="8" flood-color="#16362f" flood-opacity=".18"/>
    </filter>
  </defs>
  <rect width="820" height="300" fill="none"/>
  <g fill="none" stroke="url(#gold)" stroke-width="5" stroke-linecap="round" stroke-linejoin="round" filter="url(#soft)">
    <path d="M154 148c-42-40-65-77-57-111 47 13 76 47 88 101"/>
    <path d="M666 148c42-40 65-77 57-111-47 13-76 47-88 101"/>
    <path d="M112 182c-48-1-78 11-93 36 42 19 87 9 129-30"/>
    <path d="M708 182c48-1 78 11 93 36-42 19-87 9-129-30"/>
    <path d="M70 82c36 13 65 37 85 72M750 82c-36 13-65 37-85 72"/>
    <path d="M230 150c46-34 96-51 150-51s104 17 150 51"/>
    <path d="M230 188c46 34 96 51 150 51s104-17 150-51"/>
  </g>
  <g fill="#f7f1e5" stroke="#b58a3a" stroke-width="3">
    <circle cx="206" cy="150" r="13"/>
    <circle cx="614" cy="150" r="13"/>
    <circle cx="410" cy="83" r="8"/>
    <circle cx="410" cy="252" r="8"/>
  </g>
  <text x="410" y="145" text-anchor="middle" font-family="Georgia, serif" font-size="48" fill="#234640" letter-spacing="4">SUGENG RAWUH</text>
  <text x="410" y="188" text-anchor="middle" font-family="Arial, sans-serif" font-size="18" fill="#6f5138" letter-spacing="6">THE WEDDING INVITATION</text>
</svg>
