<!DOCTYPE svg PUBLIC "-//W3C//DTD SVG 1.1//EN" "../vendor/141-svg11.dtd">
<!-- Uploaded to: SVG Repo, www.svgrepo.com, Transformed by: SVG Repo Mixer Tools -->
<svg height="800px" width="800px" version="1.1" id="Capa_1" xmlns="http://www.w3.org/2000/svg" xmlns:xlink="http://www.w3.org/1999/xlink" viewBox="-3.47 -3.47 21.40 21.40" xml:space="preserve" fill="#000000">
<g id="SVGRepo_bgCarrier" stroke-width="0" transform="translate(0,0), scale(1)">
<rect x="-3.47" y="-3.47" width="21.40" height="21.40" rx="10.7" fill="#ffffff" strokewidth="0"/>
</g>
<g id="SVGRepo_tracerCarrier" stroke-linecap="round" stroke-linejoin="round"/>
<g id="SVGRepo_iconCarrier"> <g> <path style="fill:#030104;" d="M14.337,0.125c-0.117-0.118-0.295-0.156-0.451-0.098L1.576,4.664 c-0.171,0.064-0.282,0.23-0.275,0.413c0.007,0.184,0.13,0.342,0.304,0.393l3.086,0.915l-4.566,4.566 c-0.167,0.166-0.167,0.436,0,0.602l2.785,2.784c0.166,0.167,0.436,0.167,0.602,0L8.14,9.71l0.851,3.139 c0.049,0.178,0.206,0.305,0.391,0.313s0.354-0.103,0.419-0.274l4.634-12.312C14.494,0.42,14.456,0.243,14.337,0.125z M9.467,11.353 L8.768,8.778C8.729,8.632,8.614,8.516,8.467,8.477S8.163,8.481,8.056,8.588L3.21,13.434l-2.182-2.183L5.799,6.48 c0.106-0.106,0.148-0.26,0.112-0.405C5.874,5.929,5.763,5.813,5.619,5.772L3.061,5.014l10.246-3.859L9.467,11.353z"/> </g> </g>
</svg>